<svg width="1214" height="1080" viewBox="0 0 1214 1080" fill="none" xmlns="http://www.w3.org/2000/svg">
<ellipse cx="800" cy="540" rx="800" ry="998" fill="#FF7F50"/>
<path d="M976.922 591.442C976.957 593.118 976.98 594.796 976.991 596.477L973.991 596.497C973.997 597.331 974 598.165 974 599C974 599.835 973.997 600.669 973.991 601.503L976.991 601.523C976.98 603.204 976.957 604.883 976.922 606.558L973.923 606.497C973.889 608.159 973.844 609.818 973.787 611.474L976.785 611.577C976.728 613.247 976.659 614.915 976.58 616.58L973.583 616.436C973.503 618.097 973.412 619.755 973.31 621.41L976.305 621.595C976.201 623.271 976.086 624.945 975.96 626.616L972.968 626.389C972.843 628.046 972.707 629.7 972.559 631.351L975.547 631.618C975.398 633.283 975.238 634.945 975.066 636.603L972.082 636.295C971.911 637.949 971.729 639.601 971.535 641.249L974.515 641.599C974.319 643.266 974.112 644.929 973.894 646.59L970.919 646.199C970.703 647.845 970.475 649.489 970.236 651.129L973.205 651.561C972.964 653.215 972.712 654.865 972.449 656.512L969.487 656.039C969.224 657.682 968.95 659.322 968.666 660.958L971.621 661.473C971.334 663.125 971.035 664.774 970.725 666.419L967.777 665.863C967.469 667.495 967.151 669.123 966.821 670.747L969.762 671.343C969.429 672.981 969.086 674.615 968.732 676.246L965.8 675.609C965.447 677.235 965.083 678.858 964.707 680.477L967.63 681.155C967.251 682.788 966.861 684.417 966.461 686.041L963.548 685.323C963.151 686.935 962.743 688.542 962.324 690.146L965.226 690.904C964.803 692.523 964.37 694.137 963.925 695.747L961.033 694.949C960.591 696.552 960.137 698.151 959.673 699.747L962.553 700.585C962.085 702.194 961.606 703.798 961.116 705.398L958.247 704.52C957.762 706.106 957.265 707.689 956.758 709.267L959.615 710.185C959.103 711.778 958.58 713.368 958.047 714.952L955.203 713.995C954.673 715.571 954.132 717.142 953.581 718.709L956.411 719.705C955.855 721.284 955.288 722.859 954.711 724.43L951.895 723.395C951.323 724.952 950.74 726.505 950.147 728.054L952.948 729.127C952.349 730.691 951.74 732.25 951.12 733.804L948.333 732.692C947.718 734.236 947.092 735.774 946.456 737.308L949.227 738.457C948.585 740.004 947.933 741.545 947.271 743.081L944.516 741.894C943.859 743.418 943.193 744.937 942.516 746.452L945.254 747.676C944.571 749.205 943.877 750.729 943.173 752.248L940.451 750.986C939.753 752.493 939.044 753.995 938.325 755.491L941.03 756.79C940.305 758.299 939.571 759.802 938.826 761.301L936.14 759.966C935.401 761.453 934.653 762.934 933.895 764.41L936.563 765.781C935.798 767.27 935.023 768.754 934.238 770.233L931.588 768.826C930.809 770.293 930.021 771.754 929.223 773.21L931.854 774.652C931.049 776.12 930.235 777.582 929.411 779.039L926.8 777.562C925.982 779.007 925.155 780.446 924.318 781.88L926.91 783.392C926.066 784.838 925.213 786.278 924.35 787.712L921.779 786.166C920.924 787.589 920.058 789.006 919.184 790.418L921.734 791.998C920.852 793.421 919.961 794.838 919.061 796.249L916.532 794.635C915.638 796.035 914.736 797.428 913.824 798.816L916.332 800.463C915.413 801.862 914.485 803.255 913.548 804.641L911.062 802.961C910.132 804.337 909.193 805.707 908.245 807.071L910.709 808.783C909.753 810.158 908.789 811.526 907.815 812.888L905.374 811.144C904.409 812.494 903.435 813.839 902.452 815.177L904.869 816.953C903.879 818.302 902.879 819.644 901.871 820.98L899.476 819.172C898.476 820.497 897.466 821.817 896.448 823.13L898.819 824.968C897.793 826.291 896.758 827.608 895.715 828.918L893.368 827.049C892.334 828.347 891.292 829.639 890.241 830.924L892.563 832.823C891.504 834.118 890.436 835.407 889.36 836.689L887.062 834.76C885.994 836.032 884.918 837.298 883.833 838.557L886.106 840.515C885.013 841.783 883.912 843.044 882.803 844.299L880.555 842.312C879.456 843.555 878.349 844.792 877.233 846.021L879.455 848.037C878.331 849.276 877.198 850.509 876.057 851.734L873.861 849.69C872.73 850.906 871.589 852.116 870.441 853.318L872.611 855.39C871.456 856.6 870.292 857.803 869.121 859L866.978 856.901C865.817 858.086 864.648 859.265 863.471 860.437L865.588 862.563C864.402 863.743 863.208 864.917 862.007 866.083L859.917 863.931C858.724 865.089 857.524 866.239 856.317 867.383L858.379 869.561C857.165 870.711 855.943 871.853 854.713 872.989L852.678 870.784C851.458 871.91 850.231 873.029 848.997 874.14L851.004 876.37C849.76 877.489 848.509 878.602 847.25 879.707L845.271 877.452C844.022 878.549 842.765 879.638 841.501 880.72L843.452 882.999C842.182 884.086 840.905 885.166 839.621 886.237L837.699 883.934C836.424 884.998 835.143 886.054 833.854 887.103L835.748 889.43C834.45 890.486 833.144 891.535 831.832 892.576L829.967 890.226C828.665 891.26 827.356 892.285 826.04 893.303L827.875 895.676C826.554 896.698 825.225 897.713 823.89 898.72L822.084 896.324C820.758 897.324 819.426 898.315 818.086 899.299L819.863 901.717C818.514 902.708 817.158 903.692 815.795 904.667L814.049 902.228C812.698 903.195 811.34 904.155 809.976 905.107L811.692 907.567C810.322 908.523 808.945 909.471 807.562 910.411L805.875 907.93C804.502 908.863 803.122 909.788 801.736 910.706L803.392 913.208C801.995 914.132 800.592 915.048 799.183 915.956L797.558 913.434C796.162 914.334 794.76 915.225 793.351 916.109L794.945 918.65C793.53 919.538 792.108 920.418 790.68 921.289L789.117 918.729C787.7 919.594 786.276 920.451 784.847 921.3L786.379 923.879C784.938 924.735 783.492 925.582 782.04 926.42L780.54 923.822C779.102 924.653 777.659 925.474 776.21 926.288L777.679 928.904C776.222 929.722 774.759 930.532 773.29 931.333L771.853 928.7C770.395 929.496 768.931 930.283 767.462 931.062L768.867 933.712C767.387 934.497 765.901 935.273 764.41 936.041L763.037 933.374C761.562 934.133 760.081 934.884 758.595 935.626L759.935 938.31C758.441 939.057 756.94 939.795 755.435 940.525L754.126 937.825C752.631 938.55 751.131 939.266 749.625 939.973L750.901 942.688C749.384 943.401 747.863 944.105 746.335 944.8L745.092 942.07C743.583 942.757 742.069 943.435 740.55 944.105L741.76 946.85C740.231 947.524 738.697 948.19 737.158 948.847L735.98 946.087C734.452 946.739 732.919 947.383 731.38 948.018L732.525 950.791C730.975 951.43 729.421 952.06 727.862 952.682L726.751 949.895C725.211 950.509 723.667 951.114 722.118 951.71L723.196 954.51C721.636 955.11 720.072 955.702 718.503 956.284L717.459 953.472C715.901 954.05 714.338 954.62 712.771 955.181L713.782 958.005C712.203 958.57 710.62 959.126 709.033 959.673L708.056 956.836C706.49 957.375 704.919 957.906 703.344 958.428L704.287 961.276C702.701 961.801 701.111 962.317 699.516 962.825L698.606 959.966C697.022 960.47 695.434 960.964 693.842 961.45L694.717 964.32C693.114 964.809 691.506 965.289 689.894 965.76L689.052 962.88C687.463 963.345 685.869 963.8 684.272 964.247L685.079 967.136C683.47 967.586 681.857 968.026 680.239 968.457L679.466 965.559C677.86 965.987 676.25 966.406 674.636 966.817L675.375 969.724C673.75 970.137 672.121 970.541 670.488 970.935L669.783 968.019C668.174 968.408 666.561 968.788 664.945 969.158L665.615 972.083C663.987 972.456 662.355 972.82 660.719 973.175L660.083 970.243C658.459 970.595 656.831 970.938 655.199 971.272L655.801 974.211C654.157 974.548 652.511 974.875 650.86 975.192L650.293 972.246C648.668 972.559 647.039 972.862 645.407 973.157L645.94 976.109C644.297 976.406 642.65 976.693 640.999 976.971L640.501 974.012C638.862 974.288 637.22 974.555 635.574 974.812L636.038 977.776C634.381 978.036 632.72 978.285 631.056 978.526L630.627 975.557C628.989 975.793 627.348 976.021 625.703 976.239L626.098 979.213C624.443 979.432 622.785 979.642 621.124 979.843L620.764 976.865C619.114 977.064 617.461 977.254 615.805 977.435L616.131 980.418C614.463 980.6 612.793 980.772 611.12 980.935L610.829 977.949C609.181 978.11 607.53 978.261 605.876 978.403L606.132 981.392C604.47 981.535 602.805 981.668 601.137 981.792L600.914 978.801C599.258 978.924 597.598 979.037 595.936 979.142L596.124 982.136C594.45 982.241 592.774 982.336 591.094 982.423L590.941 979.427C589.286 979.511 587.628 979.587 585.967 979.653L586.087 982.651C584.421 982.717 582.752 982.774 581.081 982.821L580.995 979.823C579.336 979.87 577.673 979.908 576.008 979.936L576.059 982.936C574.383 982.964 572.705 982.983 571.023 982.993L571.006 979.993C570.172 979.998 569.336 980 568.5 980C567.664 980 566.828 979.998 565.993 979.993L565.976 982.993C564.295 982.983 562.616 982.964 560.94 982.936L560.991 979.936C559.326 979.908 557.664 979.87 556.004 979.823L555.919 982.821C554.248 982.774 552.579 982.717 550.913 982.651L551.032 979.653C549.372 979.587 547.714 979.511 546.059 979.426L545.905 982.423C544.226 982.336 542.549 982.241 540.876 982.136L541.064 979.142C539.401 979.037 537.742 978.924 536.085 978.801L535.863 981.792C534.195 981.668 532.53 981.535 530.867 981.392L531.124 978.403C529.47 978.261 527.819 978.11 526.171 977.949L525.88 980.935C524.206 980.772 522.536 980.599 520.869 980.417L521.194 977.435C519.538 977.254 517.886 977.064 516.236 976.865L515.876 979.843C514.215 979.642 512.557 979.432 510.902 979.213L511.296 976.239C509.652 976.021 508.01 975.793 506.372 975.556L505.943 978.526C504.279 978.285 502.619 978.035 500.962 977.776L501.425 974.812C499.78 974.555 498.137 974.288 496.498 974.012L496 976.971C494.35 976.693 492.703 976.406 491.059 976.109L491.592 973.157C489.96 972.862 488.331 972.559 486.706 972.246L486.139 975.192C484.489 974.874 482.842 974.547 481.199 974.211L481.8 971.272C480.169 970.938 478.54 970.595 476.916 970.243L476.28 973.174C474.645 972.82 473.013 972.456 471.384 972.082L472.055 969.158C470.438 968.788 468.825 968.408 467.216 968.019L466.511 970.935C464.878 970.541 463.249 970.137 461.624 969.724L462.363 966.816C460.749 966.406 459.139 965.987 457.533 965.559L456.76 968.457C455.143 968.026 453.529 967.585 451.92 967.136L452.728 964.246C451.13 963.8 449.537 963.345 447.947 962.88L447.106 965.76C445.494 965.289 443.886 964.809 442.282 964.319L443.158 961.45C441.565 960.964 439.977 960.469 438.393 959.966L437.484 962.824C435.889 962.317 434.298 961.801 432.712 961.275L433.655 958.427C432.08 957.906 430.51 957.375 428.944 956.836L427.967 959.672C426.379 959.126 424.796 958.57 423.218 958.005L424.228 955.18C422.661 954.62 421.098 954.05 419.541 953.472L418.496 956.284C416.927 955.701 415.363 955.11 413.804 954.51L414.882 951.71C413.332 951.114 411.788 950.509 410.249 949.895L409.138 952.682C407.579 952.06 406.024 951.43 404.475 950.791L405.619 948.017C404.081 947.383 402.548 946.739 401.019 946.087L399.842 948.846C398.303 948.19 396.769 947.524 395.24 946.85L396.45 944.105C394.931 943.435 393.416 942.757 391.907 942.07L390.664 944.8C389.137 944.105 387.615 943.401 386.099 942.688L387.374 939.973C385.869 939.266 384.368 938.549 382.873 937.825L381.565 940.525C380.059 939.795 378.559 939.057 377.064 938.31L378.405 935.626C376.919 934.884 375.438 934.133 373.963 933.373L372.59 936.041C371.099 935.273 369.613 934.497 368.133 933.712L369.538 931.062C368.068 930.283 366.604 929.495 365.146 928.7L363.709 931.333C362.241 930.532 360.778 929.722 359.321 928.904L360.79 926.288C359.341 925.474 357.897 924.652 356.46 923.822L354.96 926.42C353.507 925.581 352.061 924.734 350.621 923.879L352.153 921.3C350.723 920.451 349.3 919.594 347.882 918.728L346.319 921.289C344.891 920.417 343.47 919.538 342.054 918.65L343.648 916.108C342.24 915.225 340.837 914.333 339.441 913.434L337.816 915.956C336.407 915.048 335.004 914.131 333.608 913.207L335.264 910.706C333.878 909.788 332.498 908.863 331.124 907.93L329.438 910.411C328.055 909.471 326.678 908.523 325.308 907.567L327.024 905.106C325.66 904.155 324.302 903.195 322.951 902.228L321.205 904.667C319.842 903.692 318.486 902.708 317.137 901.717L318.913 899.299C317.574 898.315 316.242 897.323 314.916 896.324L313.11 898.72C311.775 897.713 310.446 896.698 309.125 895.676L310.96 893.303C309.644 892.285 308.335 891.259 307.032 890.226L305.168 892.576C303.855 891.535 302.55 890.486 301.252 889.429L303.145 887.103C301.857 886.054 300.575 884.998 299.301 883.934L297.379 886.237C296.094 885.165 294.818 884.086 293.548 882.999L295.499 880.72C294.235 879.638 292.978 878.549 291.729 877.452L289.749 879.707C288.491 878.602 287.239 877.489 285.996 876.369L288.003 874.14C286.768 873.029 285.541 871.91 284.322 870.784L282.287 872.988C281.057 871.853 279.835 870.711 278.621 869.561L280.683 867.383C279.475 866.239 278.275 865.089 277.083 863.931L274.993 866.083C273.792 864.917 272.598 863.743 271.412 862.563L273.529 860.437C272.352 859.265 271.183 858.086 270.022 856.901L267.879 858.999C266.707 857.803 265.544 856.6 264.389 855.39L266.558 853.318C265.41 852.116 264.27 850.906 263.138 849.69L260.942 851.734C259.802 850.508 258.669 849.276 257.545 848.037L259.767 846.021C258.651 844.791 257.544 843.555 256.445 842.312L254.197 844.299C253.088 843.044 251.987 841.783 250.894 840.515L253.167 838.557C252.082 837.298 251.006 836.032 249.938 834.76L247.64 836.689C246.564 835.407 245.496 834.118 244.437 832.823L246.759 830.924C245.708 829.638 244.666 828.347 243.632 827.049L241.285 828.918C240.242 827.607 239.207 826.291 238.181 824.968L240.552 823.129C239.534 821.816 238.524 820.497 237.524 819.172L235.129 820.979C234.121 819.643 233.121 818.301 232.131 816.953L234.548 815.177C233.565 813.839 232.591 812.494 231.626 811.144L229.185 812.888C228.211 811.526 227.247 810.157 226.291 808.783L228.754 807.071C227.806 805.707 226.867 804.337 225.937 802.961L223.452 804.641C222.515 803.254 221.587 801.862 220.668 800.463L223.175 798.816C222.264 797.428 221.361 796.034 220.468 794.635L217.939 796.248C217.039 794.837 216.148 793.42 215.266 791.998L217.816 790.417C216.941 789.006 216.076 787.589 215.22 786.166L212.65 787.712C211.787 786.278 210.934 784.837 210.09 783.392L212.681 781.88C211.845 780.446 211.018 779.006 210.2 777.561L207.589 779.038C206.765 777.582 205.951 776.12 205.146 774.652L207.777 773.21C206.979 771.754 206.19 770.293 205.412 768.826L202.762 770.232C201.977 768.754 201.202 767.27 200.437 765.78L203.105 764.409C202.347 762.933 201.598 761.452 200.86 759.966L198.173 761.3C197.429 759.802 196.694 758.298 195.97 756.789L198.674 755.491C197.956 753.994 197.247 752.492 196.549 750.985L193.827 752.247C193.123 750.728 192.429 749.204 191.746 747.676L194.484 746.451C193.807 744.937 193.14 743.418 192.484 741.894L189.729 743.081C189.067 741.544 188.415 740.003 187.773 738.457L190.544 737.307C189.908 735.773 189.282 734.235 188.667 732.692L185.88 733.803C185.26 732.249 184.651 730.69 184.051 729.126L186.853 728.053C186.26 726.505 185.677 724.952 185.105 723.394L182.289 724.429C181.712 722.859 181.145 721.284 180.589 719.704L183.419 718.708C182.868 717.141 182.327 715.57 181.797 713.995L178.953 714.952C178.42 713.367 177.897 711.778 177.385 710.184L180.242 709.267C179.734 707.688 179.238 706.106 178.752 704.519L175.884 705.397C175.394 703.797 174.915 702.193 174.447 700.584L177.327 699.746C176.863 698.151 176.409 696.551 175.967 694.948L173.075 695.746C172.63 694.136 172.197 692.522 171.774 690.904L174.676 690.145C174.257 688.542 173.849 686.934 173.452 685.323L170.539 686.041C170.138 684.416 169.749 682.787 169.37 681.154L172.293 680.477C171.917 678.858 171.553 677.235 171.2 675.608L168.268 676.245C167.914 674.615 167.57 672.981 167.238 671.343L170.178 670.747C169.849 669.122 169.531 667.494 169.223 665.863L166.275 666.418C165.965 664.773 165.666 663.124 165.379 661.472L168.334 660.958C168.05 659.321 167.776 657.682 167.513 656.038L164.551 656.512C164.288 654.865 164.036 653.214 163.795 651.561L166.764 651.128C166.525 649.488 166.297 647.845 166.081 646.198L163.106 646.589C162.888 644.929 162.681 643.265 162.485 641.598L165.465 641.248C165.271 639.6 165.089 637.949 164.918 636.294L161.934 636.603C161.762 634.944 161.602 633.283 161.453 631.618L164.441 631.351C164.293 629.7 164.157 628.046 164.032 626.389L161.04 626.615C160.914 624.945 160.799 623.271 160.695 621.595L163.69 621.41C163.588 619.755 163.497 618.097 163.417 616.436L160.42 616.579C160.341 614.915 160.272 613.247 160.215 611.577L163.213 611.474C163.156 609.817 163.111 608.158 163.077 606.496L160.078 606.558C160.043 604.882 160.02 603.204 160.009 601.523L163.009 601.503C163.003 600.669 163 599.835 163 599C163 598.165 163.003 597.331 163.009 596.497L160.009 596.477C160.02 594.796 160.043 593.117 160.078 591.442L163.077 591.503C163.111 589.841 163.157 588.182 163.213 586.526L160.215 586.423C160.272 584.753 160.341 583.085 160.42 581.42L163.417 581.564C163.497 579.903 163.588 578.245 163.69 576.59L160.695 576.405C160.799 574.728 160.914 573.055 161.04 571.384L164.032 571.611C164.157 569.954 164.293 568.3 164.441 566.649L161.453 566.382C161.602 564.717 161.762 563.055 161.934 561.397L164.918 561.705C165.089 560.051 165.271 558.399 165.465 556.751L162.485 556.401C162.681 554.734 162.888 553.071 163.106 551.41L166.081 551.801C166.297 550.155 166.525 548.511 166.764 546.871L163.795 546.439C164.036 544.785 164.288 543.135 164.551 541.488L167.513 541.961C167.776 540.318 168.05 538.678 168.334 537.042L165.379 536.527C165.666 534.875 165.965 533.226 166.275 531.581L169.223 532.137C169.531 530.505 169.849 528.877 170.179 527.253L167.238 526.657C167.571 525.019 167.914 523.385 168.268 521.754L171.2 522.391C171.553 520.765 171.917 519.142 172.293 517.523L169.37 516.845C169.749 515.212 170.139 513.583 170.539 511.959L173.452 512.677C173.849 511.065 174.257 509.458 174.676 507.854L171.774 507.096C172.197 505.477 172.63 503.863 173.075 502.253L175.967 503.051C176.409 501.448 176.863 499.849 177.327 498.253L174.447 497.415C174.915 495.806 175.394 494.202 175.884 492.602L178.752 493.48C179.238 491.894 179.735 490.311 180.242 488.733L177.385 487.815C177.897 486.222 178.42 484.632 178.954 483.048L181.797 484.005C182.327 482.429 182.868 480.858 183.419 479.291L180.589 478.295C181.145 476.716 181.712 475.141 182.289 473.57L185.105 474.605C185.677 473.048 186.26 471.495 186.853 469.946L184.052 468.873C184.651 467.309 185.26 465.75 185.88 464.196L188.667 465.308C189.282 463.764 189.908 462.226 190.545 460.692L187.773 459.543C188.415 457.996 189.067 456.455 189.729 454.919L192.484 456.106C193.141 454.582 193.807 453.063 194.484 451.548L191.746 450.324C192.429 448.795 193.123 447.271 193.827 445.752L196.549 447.014C197.247 445.507 197.956 444.005 198.675 442.509L195.97 441.21C196.695 439.701 197.429 438.197 198.174 436.699L200.86 438.034C201.599 436.547 202.347 435.066 203.105 433.59L200.437 432.219C201.202 430.73 201.977 429.246 202.762 427.767L205.412 429.174C206.191 427.707 206.979 426.246 207.777 424.79L205.146 423.348C205.951 421.88 206.765 420.418 207.589 418.961L210.2 420.438C211.018 418.993 211.845 417.554 212.682 416.12L210.09 414.608C210.934 413.162 211.787 411.722 212.65 410.288L215.221 411.834C216.076 410.411 216.942 408.994 217.816 407.582L215.266 406.002C216.148 404.579 217.039 403.162 217.939 401.751L220.468 403.365C221.362 401.965 222.264 400.572 223.176 399.184L220.668 397.537C221.587 396.138 222.515 394.745 223.452 393.359L225.938 395.038C226.868 393.663 227.807 392.293 228.755 390.929L226.291 389.217C227.247 387.842 228.211 386.474 229.185 385.112L231.626 386.856C232.591 385.506 233.565 384.161 234.548 382.823L232.131 381.047C233.121 379.698 234.121 378.356 235.129 377.02L237.524 378.828C238.524 377.502 239.534 376.183 240.552 374.87L238.181 373.032C239.207 371.709 240.242 370.392 241.285 369.082L243.632 370.951C244.666 369.653 245.708 368.361 246.759 367.076L244.437 365.177C245.496 363.882 246.564 362.593 247.64 361.311L249.938 363.24C251.006 361.968 252.082 360.702 253.167 359.443L250.894 357.485C251.987 356.217 253.088 354.956 254.197 353.701L256.445 355.688C257.544 354.445 258.651 353.208 259.767 351.979L257.545 349.963C258.669 348.724 259.802 347.491 260.942 346.266L263.139 348.31C264.27 347.093 265.411 345.884 266.559 344.682L264.389 342.61C265.544 341.4 266.708 340.197 267.879 339L270.022 341.099C271.183 339.914 272.352 338.735 273.529 337.563L271.413 335.437C272.598 334.257 273.792 333.083 274.993 331.917L277.083 334.069C278.276 332.911 279.476 331.761 280.683 330.617L278.621 328.439C279.835 327.289 281.057 326.147 282.287 325.011L284.322 327.216C285.542 326.09 286.769 324.971 288.003 323.86L285.996 321.63C287.24 320.511 288.491 319.398 289.75 318.293L291.729 320.548C292.978 319.451 294.235 318.362 295.499 317.28L293.548 315.001C294.818 313.914 296.095 312.834 297.379 311.763L299.301 314.066C300.575 313.002 301.857 311.946 303.146 310.897L301.252 308.57C302.55 307.514 303.856 306.465 305.168 305.424L307.033 307.774C308.335 306.74 309.644 305.715 310.96 304.697L309.125 302.324C310.446 301.302 311.775 300.287 313.11 299.28L314.916 301.676C316.242 300.676 317.574 299.685 318.914 298.701L317.137 296.283C318.486 295.292 319.842 294.308 321.205 293.333L322.951 295.772C324.302 294.805 325.66 293.845 327.024 292.893L325.308 290.433C326.678 289.477 328.055 288.529 329.438 287.589L331.125 290.07C332.498 289.137 333.878 288.212 335.264 287.294L333.608 284.792C335.005 283.868 336.408 282.952 337.817 282.044L339.442 284.566C340.838 283.666 342.24 282.775 343.649 281.891L342.055 279.35C343.47 278.462 344.892 277.582 346.32 276.711L347.883 279.271C349.3 278.406 350.724 277.549 352.153 276.7L350.621 274.121C352.062 273.265 353.508 272.418 354.96 271.58L356.46 274.178C357.898 273.347 359.341 272.525 360.79 271.712L359.321 269.096C360.778 268.278 362.241 267.468 363.71 266.667L365.147 269.3C366.605 268.504 368.069 267.717 369.538 266.938L368.133 264.288C369.613 263.503 371.099 262.727 372.59 261.959L373.963 264.626C375.439 263.867 376.919 263.116 378.405 262.374L377.064 259.69C378.559 258.943 380.06 258.205 381.565 257.475L382.874 260.175C384.369 259.45 385.869 258.734 387.375 258.027L386.099 255.312C387.616 254.599 389.137 253.895 390.665 253.2L391.908 255.93C393.417 255.243 394.931 254.565 396.45 253.895L395.24 251.15C396.769 250.476 398.303 249.81 399.842 249.153L401.02 251.913C402.548 251.261 404.081 250.617 405.62 249.983L404.475 247.209C406.025 246.57 407.579 245.94 409.138 245.318L410.249 248.105C411.789 247.491 413.333 246.886 414.882 246.29L413.804 243.49C415.364 242.89 416.928 242.298 418.497 241.716L419.541 244.528C421.099 243.95 422.662 243.38 424.229 242.819L423.218 239.995C424.797 239.43 426.38 238.874 427.967 238.327L428.944 241.164C430.51 240.625 432.081 240.094 433.656 239.572L432.713 236.724C434.299 236.199 435.889 235.683 437.484 235.175L438.394 238.034C439.978 237.53 441.566 237.036 443.158 236.55L442.283 233.68C443.886 233.191 445.494 232.711 447.106 232.24L447.948 235.12C449.537 234.655 451.131 234.2 452.728 233.753L451.921 230.864C453.53 230.414 455.143 229.974 456.761 229.543L457.534 232.441C459.14 232.013 460.75 231.594 462.364 231.183L461.625 228.276C463.25 227.863 464.879 227.459 466.512 227.065L467.217 229.981C468.826 229.592 470.439 229.212 472.055 228.842L471.385 225.917C473.013 225.544 474.645 225.18 476.281 224.825L476.917 227.757C478.541 227.405 480.169 227.062 481.801 226.728L481.199 223.789C482.843 223.452 484.489 223.125 486.14 222.808L486.707 225.754C488.332 225.441 489.961 225.138 491.593 224.843L491.06 221.891C492.703 221.594 494.35 221.307 496.001 221.029L496.499 223.988C498.138 223.712 499.78 223.445 501.426 223.188L500.962 220.224C502.619 219.964 504.28 219.715 505.944 219.474L506.373 222.443C508.011 222.207 509.652 221.979 511.297 221.761L510.902 218.787C512.557 218.568 514.215 218.358 515.876 218.157L516.236 221.135C517.886 220.936 519.539 220.746 521.195 220.565L520.869 217.582C522.537 217.4 524.207 217.228 525.88 217.065L526.171 220.051C527.819 219.89 529.47 219.739 531.124 219.597L530.868 216.608C532.53 216.465 534.195 216.332 535.863 216.208L536.086 219.199C537.742 219.076 539.402 218.963 541.064 218.858L540.876 215.864C542.55 215.759 544.226 215.663 545.906 215.577L546.059 218.574C547.714 218.489 549.372 218.413 551.033 218.347L550.913 215.349C552.579 215.283 554.248 215.226 555.919 215.179L556.005 218.177C557.664 218.13 559.327 218.092 560.992 218.064L560.941 215.064C562.617 215.036 564.295 215.017 565.977 215.007L565.994 218.007C566.828 218.002 567.664 218 568.5 218C569.336 218 570.172 218.002 571.007 218.007L571.024 215.007C572.705 215.017 574.384 215.036 576.06 215.064L576.009 218.064C577.674 218.092 579.336 218.13 580.996 218.177L581.081 215.179C582.752 215.226 584.421 215.283 586.087 215.349L585.968 218.347C587.628 218.413 589.286 218.489 590.941 218.574L591.095 215.577C592.774 215.664 594.451 215.759 596.124 215.864L595.936 218.858C597.599 218.963 599.258 219.076 600.915 219.199L601.137 216.208C602.805 216.332 604.47 216.465 606.133 216.608L605.876 219.597C607.53 219.739 609.181 219.89 610.829 220.051L611.12 217.065C612.794 217.228 614.464 217.401 616.131 217.583L615.806 220.565C617.462 220.746 619.114 220.936 620.764 221.135L621.124 218.157C622.785 218.358 624.444 218.568 626.098 218.787L625.704 221.761C627.348 221.98 628.99 222.207 630.628 222.444L631.057 219.474C632.721 219.715 634.381 219.965 636.038 220.224L635.575 223.188C637.22 223.445 638.863 223.712 640.502 223.988L641 221.029C642.65 221.307 644.297 221.594 645.941 221.891L645.408 224.843C647.04 225.138 648.669 225.441 650.294 225.754L650.861 222.808C652.511 223.126 654.158 223.453 655.801 223.789L655.2 226.728C656.831 227.062 658.46 227.405 660.084 227.757L660.72 224.826C662.355 225.18 663.987 225.544 665.616 225.918L664.945 228.842C666.562 229.212 668.175 229.592 669.784 229.981L670.489 227.065C672.122 227.459 673.751 227.863 675.376 228.276L674.637 231.184C676.251 231.594 677.861 232.013 679.467 232.441L680.24 229.543C681.857 229.974 683.471 230.415 685.08 230.864L684.272 233.754C685.87 234.2 687.464 234.655 689.053 235.12L689.894 232.24C691.506 232.711 693.114 233.191 694.718 233.681L693.842 236.55C695.435 237.036 697.023 237.531 698.607 238.034L699.516 235.176C701.111 235.683 702.702 236.199 704.288 236.725L703.345 239.573C704.92 240.094 706.49 240.625 708.056 241.164L709.033 238.328C710.621 238.874 712.204 239.43 713.782 239.995L712.772 242.82C714.339 243.38 715.902 243.95 717.459 244.528L718.504 241.716C720.073 242.299 721.637 242.89 723.196 243.49L722.119 246.29C723.668 246.886 725.212 247.491 726.751 248.105L727.862 245.318C729.421 245.94 730.976 246.57 732.525 247.209L731.381 249.983C732.919 250.617 734.452 251.261 735.981 251.913L737.158 249.154C738.697 249.81 740.231 250.476 741.76 251.15L740.55 253.895C742.069 254.565 743.584 255.243 745.093 255.93L746.336 253.2C747.863 253.895 749.385 254.599 750.901 255.312L749.626 258.027C751.131 258.735 752.632 259.451 754.127 260.175L755.435 257.475C756.941 258.205 758.441 258.943 759.936 259.69L758.595 262.374C760.081 263.116 761.562 263.867 763.037 264.627L764.41 261.959C765.901 262.727 767.387 263.503 768.867 264.288L767.462 266.938C768.932 267.717 770.396 268.505 771.854 269.3L773.291 266.667C774.759 267.468 776.222 268.278 777.679 269.096L776.21 271.712C777.659 272.526 779.103 273.348 780.54 274.178L782.04 271.58C783.493 272.419 784.939 273.266 786.379 274.121L784.847 276.7C786.277 277.549 787.7 278.406 789.118 279.272L790.681 276.711C792.109 277.583 793.53 278.462 794.946 279.35L793.352 281.892C794.76 282.775 796.163 283.667 797.559 284.566L799.184 282.044C800.593 282.952 801.996 283.869 803.392 284.793L801.736 287.294C803.122 288.212 804.502 289.137 805.876 290.07L807.562 287.589C808.945 288.529 810.322 289.477 811.692 290.433L809.976 292.894C811.34 293.845 812.698 294.805 814.049 295.772L815.795 293.333C817.158 294.308 818.514 295.292 819.863 296.283L818.087 298.701C819.426 299.685 820.758 300.677 822.084 301.676L823.89 299.28C825.225 300.287 826.554 301.302 827.875 302.324L826.04 304.697C827.356 305.715 828.665 306.741 829.968 307.774L831.832 305.424C833.145 306.465 834.45 307.514 835.748 308.571L833.855 310.897C835.143 311.946 836.425 313.002 837.699 314.066L839.621 311.763C840.906 312.835 842.182 313.914 843.452 315.001L841.501 317.28C842.765 318.362 844.022 319.451 845.271 320.548L847.251 318.293C848.509 319.398 849.761 320.511 851.004 321.631L848.997 323.86C850.232 324.972 851.459 326.09 852.678 327.216L854.713 325.012C855.943 326.147 857.165 327.289 858.379 328.439L856.317 330.618C857.525 331.761 858.725 332.912 859.917 334.069L862.007 331.917C863.208 333.083 864.402 334.257 865.588 335.437L863.471 337.563C864.648 338.735 865.817 339.914 866.978 341.1L869.121 339.001C870.293 340.197 871.456 341.4 872.611 342.61L870.442 344.682C871.59 345.884 872.73 347.094 873.862 348.31L876.058 346.266C877.198 347.492 878.331 348.724 879.455 349.963L877.233 351.979C878.349 353.209 879.456 354.445 880.555 355.688L882.803 353.701C883.912 354.956 885.013 356.217 886.106 357.485L883.833 359.443C884.918 360.702 885.994 361.968 887.062 363.24L889.36 361.311C890.436 362.593 891.504 363.882 892.563 365.177L890.241 367.076C891.292 368.362 892.334 369.653 893.368 370.951L895.715 369.082C896.758 370.393 897.793 371.709 898.819 373.032L896.448 374.871C897.466 376.184 898.476 377.503 899.477 378.828L901.871 377.021C902.879 378.357 903.879 379.699 904.869 381.047L902.452 382.823C903.435 384.161 904.409 385.506 905.374 386.856L907.815 385.112C908.789 386.474 909.753 387.842 910.709 389.217L908.246 390.929C909.194 392.293 910.133 393.663 911.062 395.039L913.548 393.359C914.485 394.746 915.413 396.138 916.332 397.537L913.825 399.184C914.736 400.572 915.639 401.966 916.532 403.365L919.061 401.752C919.961 403.163 920.852 404.58 921.734 406.002L919.184 407.583C920.059 408.994 920.924 410.411 921.78 411.834L924.35 410.288C925.213 411.723 926.066 413.163 926.91 414.608L924.319 416.12C925.155 417.554 925.982 418.994 926.8 420.439L929.411 418.962C930.235 420.418 931.049 421.88 931.854 423.348L929.223 424.79C930.021 426.246 930.81 427.707 931.588 429.174L934.238 427.768C935.023 429.246 935.798 430.73 936.563 432.22L933.895 433.59C934.653 435.067 935.402 436.548 936.14 438.034L938.827 436.699C939.571 438.198 940.306 439.702 941.03 441.211L938.326 442.509C939.044 444.006 939.753 445.508 940.451 447.015L943.173 445.753C943.877 447.272 944.571 448.796 945.254 450.324L942.516 451.549C943.193 453.063 943.86 454.582 944.516 456.106L947.271 454.919C947.933 456.456 948.585 457.997 949.227 459.543L946.456 460.693C947.092 462.227 947.718 463.765 948.333 465.308L951.12 464.197C951.74 465.751 952.349 467.31 952.949 468.874L950.147 469.947C950.74 471.495 951.323 473.048 951.895 474.606L954.711 473.571C955.288 475.141 955.855 476.716 956.411 478.296L953.581 479.292C954.132 480.859 954.673 482.43 955.203 484.005L958.047 483.048C958.58 484.633 959.103 486.222 959.615 487.816L956.758 488.733C957.266 490.312 957.762 491.894 958.248 493.481L961.116 492.603C961.606 494.203 962.085 495.807 962.553 497.416L959.673 498.254C960.137 499.849 960.591 501.449 961.033 503.052L963.925 502.254C964.37 503.864 964.804 505.478 965.226 507.096L962.324 507.855C962.743 509.458 963.151 511.066 963.548 512.677L966.461 511.959C966.862 513.584 967.251 515.213 967.63 516.846L964.707 517.523C965.083 519.142 965.447 520.765 965.8 522.392L968.732 521.755C969.086 523.385 969.43 525.019 969.762 526.657L966.822 527.253C967.151 528.878 967.469 530.506 967.777 532.137L970.725 531.582C971.035 533.227 971.334 534.876 971.621 536.528L968.666 537.042C968.95 538.679 969.224 540.318 969.487 541.962L972.449 541.488C972.712 543.135 972.964 544.786 973.205 546.439L970.236 546.872C970.475 548.512 970.703 550.155 970.919 551.802L973.894 551.411C974.112 553.071 974.319 554.735 974.515 556.402L971.535 556.752C971.729 558.4 971.911 560.051 972.082 561.706L975.066 561.397C975.238 563.056 975.398 564.717 975.547 566.382L972.559 566.649C972.707 568.3 972.843 569.954 972.968 571.611L975.96 571.385C976.086 573.055 976.201 574.729 976.305 576.405L973.31 576.59C973.412 578.245 973.503 579.903 973.583 581.564L976.58 581.421C976.659 583.085 976.728 584.753 976.785 586.423L973.787 586.526C973.844 588.183 973.889 589.842 973.923 591.504L976.922 591.442Z" stroke="white" stroke-width="6" stroke-dasharray="5 5"/>
</svg>
